<?xml version="1.0" standalone="no"?><!DOCTYPE svg PUBLIC "-//W3C//DTD SVG 1.1//EN" "http://www.w3.org/Graphics/SVG/1.1/DTD/svg11.dtd"><svg t="1781065831811" class="icon" viewBox="0 0 1024 1024" version="1.1" xmlns="http://www.w3.org/2000/svg" p-id="3095" xmlns:xlink="http://www.w3.org/1999/xlink" width="200" height="200"><path d="M194.6 419.5c-73 0-132.2-59.2-132.2-132.2s59.2-132.2 132.2-132.2 132.2 59.2 132.2 132.2v0.1" fill="#FFE3C1" p-id="3096"></path><path d="M194.6 438.4c-83.3 0-151.1-67.8-151.1-151.1s67.8-151.1 151.1-151.1S345.7 204 345.7 287.3c0 10.4-8.5 18.9-18.9 18.9s-18.9-8.4-18.9-18.9c0-62.5-50.8-113.3-113.3-113.3S81.3 224.8 81.3 287.3s50.8 113.3 113.3 113.3c10.4 0 18.9 8.5 18.9 18.9s-8.5 18.9-18.9 18.9z" fill="#078FBC" p-id="3097"></path><path d="M829.4 419.5c73 0 132.2-59.2 132.2-132.2s-59.2-132.2-132.2-132.2-132.2 59.2-132.2 132.2v0.1" fill="#FFE3C1" p-id="3098"></path><path d="M829.4 438.4c-10.4 0-18.9-8.5-18.9-18.9s8.5-18.9 18.9-18.9c62.5 0 113.3-50.8 113.3-113.3S891.9 174 829.4 174s-113.3 50.8-113.3 113.3c0 10.4-8.5 18.9-18.9 18.9s-18.9-8.4-18.9-18.9c0-83.4 67.8-151.1 151.1-151.1S980.5 204 980.5 287.3s-67.8 151.1-151.1 151.1z" fill="#078FBC" p-id="3099"></path><path d="M170.8 721.8V590.6C168 397.7 322 239.1 514.9 236.3c192.9-2.8 351.6 151.3 354.4 344.2V721.9" fill="#61FFCB" p-id="3100"></path><path d="M869.3 740.7c-10.4 0-18.9-8.5-18.9-18.9V590.6c0.1-3.5 0.1-6.7 0-9.9-1.3-88.3-36.9-170.7-100.2-232.2-63.3-61.5-146.9-94.5-235-93.4C427 256.4 344.5 292 283 355.3s-94.6 146.8-93.4 235v131.5c0 10.4-8.5 18.9-18.9 18.9s-18.9-8.5-18.9-18.9V590.6c-1.4-98.1 35.5-191.1 104-261.6s160.4-110.2 258.8-111.6c202.8-3.2 370.6 159.8 373.6 362.8 0.1 3.6 0.1 7.2 0 10.8v130.9c0 10.4-8.4 18.8-18.9 18.8z" fill="#078FBC" p-id="3101"></path><path d="M165.6 732.2h714c37.7 0 68.3 30.6 68.3 68.3 0 37.7-30.6 68.3-68.3 68.3h-714c-37.7 0-68.3-30.6-68.3-68.3 0-37.7 30.6-68.3 68.3-68.3z" fill="#FF9DB0" p-id="3102"></path><path d="M879.7 887.8h-714c-48.1 0-87.2-39.1-87.2-87.2s39.1-87.2 87.2-87.2h714c48.1 0 87.2 39.1 87.2 87.2s-39.1 87.2-87.2 87.2zM165.6 751.1c-27.2 0-49.4 22.2-49.4 49.4s22.2 49.4 49.4 49.4h714c27.2 0 49.4-22.2 49.4-49.4s-22.2-49.4-49.4-49.4h-714z" fill="#078FBC" p-id="3103"></path><path d="M223.9 742.6v113" fill="#FEC69F" p-id="3104"></path><path d="M223.9 874.5c-10.4 0-18.9-8.5-18.9-18.9v-113c0-10.4 8.5-18.9 18.9-18.9s18.9 8.5 18.9 18.9v113c0 10.5-8.4 18.9-18.9 18.9z" fill="#078FBC" p-id="3105"></path><path d="M343.4 742.6v113" fill="#FEC69F" p-id="3106"></path><path d="M343.4 874.5c-10.4 0-18.9-8.5-18.9-18.9v-113c0-10.4 8.5-18.9 18.9-18.9s18.9 8.5 18.9 18.9v113c0 10.5-8.5 18.9-18.9 18.9z" fill="#078FBC" p-id="3107"></path><path d="M462.9 742.6v113" fill="#FEC69F" p-id="3108"></path><path d="M462.9 874.5c-10.4 0-18.9-8.5-18.9-18.9v-113c0-10.4 8.5-18.9 18.9-18.9s18.9 8.5 18.9 18.9v113c0 10.5-8.4 18.9-18.9 18.9z" fill="#078FBC" p-id="3109"></path><path d="M582.4 742.6v113" fill="#FEC69F" p-id="3110"></path><path d="M582.4 874.5c-10.4 0-18.9-8.5-18.9-18.9v-113c0-10.4 8.5-18.9 18.9-18.9s18.9 8.5 18.9 18.9v113c0 10.5-8.5 18.9-18.9 18.9z" fill="#078FBC" p-id="3111"></path><path d="M701.9 742.6v113" fill="#FEC69F" p-id="3112"></path><path d="M701.9 874.5c-10.4 0-18.9-8.5-18.9-18.9v-113c0-10.4 8.5-18.9 18.9-18.9s18.9 8.5 18.9 18.9v113c0 10.5-8.4 18.9-18.9 18.9z" fill="#078FBC" p-id="3113"></path><path d="M821.5 742.6v113" fill="#FEC69F" p-id="3114"></path><path d="M821.5 874.5c-10.4 0-18.9-8.5-18.9-18.9v-113c0-10.4 8.5-18.9 18.9-18.9s18.9 8.5 18.9 18.9v113c0 10.5-8.5 18.9-18.9 18.9z" fill="#078FBC" p-id="3115"></path><path d="M519.9 446.6C485.7 366.8 388.6 385.4 388 478c-0.3 50.8 46.3 69.8 77.3 90.1 30.1 19.7 51.5 46.6 54.9 58.1 2.9-11.3 26.7-38.9 54.5-58.7 30.5-21.5 77.6-39.3 77.3-90.1-0.8-92.7-99.6-107.4-132.1-30.8z" fill="#FFE3C1" p-id="3116"></path><path d="M520 645.3c-8.4 0-15.7-5.7-18.1-13.7-1.9-5.8-19.3-29.4-47.1-47.7-4.5-3-9.4-5.9-14.4-8.9-30.3-18.3-71.7-43.3-71.4-97.1 0.4-51.7 27.7-90.5 69.5-98.9 26.1-5.2 58.2 3.3 81.4 31.4 23.2-27.4 55.4-35.6 81.8-30.4 41.6 8.3 68.7 46.5 69.1 97.3 0.4 52-39.2 76.6-68 94.6-6.2 3.9-12.1 7.5-17.2 11.1-26.5 18.8-45.1 42.3-47.2 48.2-2.1 8.2-9.4 13.9-17.9 14.1h-0.5z m-66-230.1c-2.6 0-5.3 0.3-8 0.8-23.6 4.7-38.9 29.1-39.2 62.1-0.2 30.1 20.9 45.1 53.2 64.5 5.4 3.3 10.7 6.5 15.6 9.7 17.9 11.7 33.4 26 44.6 39.3 12.2-14.2 28.5-28.8 43.5-39.5 6.1-4.3 12.7-8.4 19.1-12.4 31.4-19.5 50.4-33.4 50.2-62.2-0.3-39-20.2-56.8-38.7-60.5-17.5-3.5-43 4-57 36.9-3 7-9.8 11.5-17.4 11.5-7.6 0-14.4-4.5-17.4-11.5-10.4-24.2-28.9-38.7-48.5-38.7z" fill="#078FBC" p-id="3117"></path></svg>