<?xml version="1.0" standalone="no"?><!DOCTYPE svg PUBLIC "-//W3C//DTD SVG 1.1//EN" "http://www.w3.org/Graphics/SVG/1.1/DTD/svg11.dtd"><svg t="1781091392116" class="icon" viewBox="0 0 1024 1024" version="1.1" xmlns="http://www.w3.org/2000/svg" p-id="3062" xmlns:xlink="http://www.w3.org/1999/xlink" width="200" height="200"><path d="M716.2 538.3H574.9c-20.2 0-36.7 16.5-36.7 36.7v141.2c0 98.1 79.8 177.9 177.9 177.9 98.1 0 177.9-79.8 177.9-177.9s-79.7-177.9-177.8-177.9z m130.9 177.9c0 72.2-58.7 130.9-130.9 130.9s-130.9-58.7-130.9-130.9V585.3h130.9c72.2 0 130.9 58.7 130.9 130.9zM573 490.2h143.1c99.4 0 180.2-80.9 180.2-180.2s-80.9-180.2-180.2-180.2c-99.4 0-180.3 80.9-180.3 180.2v143c0.1 20.5 16.8 37.2 37.2 37.2z m10.4-47.5V309.9c0-73.2 59.6-132.8 132.8-132.8 73.2 0 132.8 59.6 132.8 132.8 0 73.2-59.6 132.8-132.8 132.8H583.4zM452 537.2H309.8c-98.7 0-179 80.3-179 179s80.3 179 179 179 179.1-80.3 179.1-179V574.1c0-20.4-16.6-36.9-36.9-36.9z m-10.3 47.2v131.8c0 72.7-59.1 131.8-131.8 131.8-72.7 0-131.8-59.1-131.8-131.8 0-72.7 59.1-131.8 131.8-131.8h131.8z" fill="#4E30DC" p-id="3063"></path><path d="M457.7 495.9c21 0 38.2-17.1 38.2-38.2V309.9c0-102.5-83.4-186-186-186-102.5 0-186 83.4-186 186s83.4 186 186 186h147.8z m-285.2-186c0-75.7 61.6-137.3 137.3-137.3 75.7 0 137.3 61.6 137.3 137.3v137.3H309.8c-75.7 0-137.3-61.6-137.3-137.3z" fill="#FF4E7D" p-id="3064"></path></svg>