<?xml version="1.0" standalone="no"?><!DOCTYPE svg PUBLIC "-//W3C//DTD SVG 1.1//EN" "http://www.w3.org/Graphics/SVG/1.1/DTD/svg11.dtd"><svg t="1781065709159" class="icon" viewBox="0 0 1024 1024" version="1.1" xmlns="http://www.w3.org/2000/svg" p-id="2406" xmlns:xlink="http://www.w3.org/1999/xlink" width="200" height="200"><path d="M164.2496 410.0096H102.1952c-5.7344 0-10.24-4.5056-10.24-10.24s4.5056-10.24 10.24-10.24h62.0544c5.7344 0 10.24 4.5056 10.24 10.24s-4.7104 10.24-10.24 10.24zM68.4032 410.0096h-3.4816c-5.7344 0-10.24-4.5056-10.24-10.24s4.5056-10.24 10.24-10.24h3.4816c5.7344 0 10.24 4.5056 10.24 10.24s-4.7104 10.24-10.24 10.24z" fill="#231F20" p-id="2407"></path><path d="M164.2496 303.104c-26.624 0-48.3328 21.7088-48.3328 48.3328s21.7088 48.3328 48.3328 48.3328h195.3792c26.624 0 48.3328-21.7088 48.3328-48.3328S386.2528 303.104 359.6288 303.104h-1.024c0-19.456-15.7696-35.0208-35.0208-35.0208-19.456 0-35.0208 15.7696-35.0208 35.0208 0-33.792-27.2384-61.0304-61.0304-61.0304S166.5024 269.312 166.5024 303.104h-2.2528z" fill="#71CCFF" p-id="2408"></path><path d="M359.6288 410.0096H164.2496c-32.3584 0-58.5728-26.2144-58.5728-58.5728 0-29.9008 22.3232-54.4768 51.2-58.1632 4.7104-34.6112 34.6112-61.44 70.656-61.44 27.8528 0 52.0192 16.1792 63.6928 39.5264 8.192-8.3968 19.6608-13.5168 32.3584-13.5168 21.7088 0 39.7312 15.36 44.2368 35.6352 28.4672 3.8912 50.3808 28.4672 50.3808 57.9584 0 32.1536-26.2144 58.5728-58.5728 58.5728zM164.2496 313.344c-21.0944 0-38.0928 16.9984-38.0928 38.0928s16.9984 38.0928 38.0928 38.0928h195.3792c21.0944 0 38.0928-16.9984 38.0928-38.0928s-16.9984-38.0928-38.0928-38.0928h-1.024c-5.7344 0-10.24-4.5056-10.24-10.24 0-13.7216-11.0592-24.7808-24.7808-24.7808s-24.7808 11.0592-24.7808 24.7808c0 5.7344-4.5056 10.24-10.24 10.24s-10.24-4.5056-10.24-10.24c0-28.0576-22.7328-50.7904-50.7904-50.7904S176.7424 275.0464 176.7424 303.104c0 5.7344-4.5056 10.24-10.24 10.24h-2.2528z" fill="#231F20" p-id="2409"></path><path d="M187.8016 350.8224H164.2496c-5.7344 0-10.24-4.5056-10.24-10.24s4.5056-10.24 10.24-10.24h23.7568c3.2768 0 5.9392-2.6624 5.9392-5.9392v-20.8896c0-17.6128 13.312-32.5632 30.5152-34.2016 9.4208-0.8192 18.8416 2.2528 25.8048 8.6016 6.9632 6.3488 11.0592 15.36 11.0592 24.9856 0 5.7344-4.5056 10.24-10.24 10.24s-10.24-4.5056-10.24-10.24c0-3.6864-1.6384-7.168-4.3008-9.8304-2.8672-2.4576-6.3488-3.6864-10.24-3.2768-6.7584 0.6144-11.8784 6.7584-11.8784 13.7216v20.8896c-0.2048 14.5408-12.0832 26.4192-26.624 26.4192z" fill="#C0E7F9" p-id="2410"></path><path d="M680.5504 178.176H618.496c-5.7344 0-10.24-4.5056-10.24-10.24s4.5056-10.24 10.24-10.24h62.0544c5.7344 0 10.24 4.5056 10.24 10.24s-4.5056 10.24-10.24 10.24zM584.704 178.176h-3.4816c-5.7344 0-10.24-4.5056-10.24-10.24s4.5056-10.24 10.24-10.24h3.4816c5.7344 0 10.24 4.5056 10.24 10.24s-4.5056 10.24-10.24 10.24z" fill="#231F20" p-id="2411"></path><path d="M680.5504 71.2704c-26.624 0-48.3328 21.7088-48.3328 48.3328S653.9264 167.936 680.5504 167.936h195.3792c26.624 0 48.3328-21.7088 48.3328-48.3328s-21.7088-48.3328-48.3328-48.3328h-1.024c0-19.456-15.7696-35.0208-35.0208-35.0208S804.864 51.8144 804.864 71.2704C804.864 37.4784 777.4208 10.24 743.8336 10.24c-33.792 0-61.0304 27.2384-61.0304 61.0304h-2.2528z" fill="#71CCFF" p-id="2412"></path><path d="M875.9296 178.176h-195.3792c-32.3584 0-58.5728-26.2144-58.5728-58.5728 0-29.9008 22.3232-54.4768 51.2-58.1632 4.7104-34.6112 34.6112-61.44 70.656-61.44 27.8528 0 52.0192 16.1792 63.6928 39.5264 8.192-8.3968 19.6608-13.5168 32.3584-13.5168 21.7088 0 39.7312 15.36 44.2368 35.6352 28.4672 3.8912 50.3808 28.4672 50.3808 57.9584 0 32.3584-26.2144 58.5728-58.5728 58.5728z m-195.3792-96.6656c-21.0944 0-38.0928 16.9984-38.0928 38.0928S659.456 157.696 680.5504 157.696h195.3792c21.0944 0 38.0928-16.9984 38.0928-38.0928s-16.9984-38.0928-38.0928-38.0928h-1.024c-5.7344 0-10.24-4.5056-10.24-10.24 0-13.7216-11.0592-24.7808-24.7808-24.7808S815.104 57.5488 815.104 71.2704c0 5.7344-4.5056 10.24-10.24 10.24s-10.24-4.5056-10.24-10.24c0-28.0576-22.7328-50.7904-50.7904-50.7904s-50.7904 22.7328-50.7904 50.7904c0 5.7344-4.5056 10.24-10.24 10.24h-2.2528z" fill="#231F20" p-id="2413"></path><path d="M704.3072 118.9888h-23.7568c-5.7344 0-10.24-4.5056-10.24-10.24s4.5056-10.24 10.24-10.24h23.7568c3.2768 0 5.9392-2.6624 5.9392-5.9392V71.8848c0-17.6128 13.312-32.5632 30.5152-34.2016 9.4208-0.8192 18.8416 2.2528 25.8048 8.6016 6.9632 6.3488 11.0592 15.36 11.0592 24.9856 0 5.7344-4.5056 10.24-10.24 10.24s-10.24-4.5056-10.24-10.24c0-3.6864-1.6384-7.168-4.3008-9.8304-2.8672-2.4576-6.3488-3.6864-10.24-3.2768-6.7584 0.6144-11.8784 6.7584-11.8784 13.7216v20.8896c-0.2048 14.5408-11.8784 26.2144-26.4192 26.2144z" fill="#C0E7F9" p-id="2414"></path><path d="M10.24 636.3136h1003.52V1013.76H10.24z" fill="#08B26C" p-id="2415"></path><path d="M299.2128 691.6096H93.5936c-5.7344 0-10.24-4.5056-10.24-10.24s4.5056-10.24 10.24-10.24h205.6192c5.7344 0 10.24 4.5056 10.24 10.24s-4.7104 10.24-10.24 10.24z" fill="#35EF9F" p-id="2416"></path><path d="M1013.76 646.5536H10.24c-5.7344 0-10.24-4.5056-10.24-10.24s4.5056-10.24 10.24-10.24h1003.52c5.7344 0 10.24 4.5056 10.24 10.24s-4.5056 10.24-10.24 10.24zM1013.76 1024H10.24c-5.7344 0-10.24-4.5056-10.24-10.24s4.5056-10.24 10.24-10.24h1003.52c5.7344 0 10.24 4.5056 10.24 10.24s-4.5056 10.24-10.24 10.24z" fill="#231F20" p-id="2417"></path><path d="M1013.76 1024H10.24c-5.7344 0-10.24-4.5056-10.24-10.24s4.5056-10.24 10.24-10.24h1003.52c5.7344 0 10.24 4.5056 10.24 10.24s-4.5056 10.24-10.24 10.24z" fill="#231F20" p-id="2418"></path><path d="M891.2896 515.2768c0.8192-2.6624 1.2288-5.3248 1.2288-8.192 0-14.5408-11.8784-26.4192-26.4192-26.4192-14.5408 0-26.4192 11.8784-26.4192 26.4192 0 2.8672 0.4096 5.5296 1.2288 8.192-11.8784 2.6624-20.6848 13.1072-20.6848 25.8048 0 14.5408 11.8784 26.4192 26.4192 26.4192 7.5776 0 14.5408-3.2768 19.456-8.3968 4.9152 5.12 11.6736 8.3968 19.456 8.3968 14.5408 0 26.4192-11.8784 26.4192-26.4192 0-12.6976-9.0112-23.1424-20.6848-25.8048z" fill="#08B26C" p-id="2419"></path><path d="M885.3504 577.7408c-6.9632 0-13.5168-2.048-19.456-5.5296-5.7344 3.6864-12.4928 5.5296-19.456 5.5296-20.2752 0-36.6592-16.384-36.6592-36.6592 0-13.7216 7.7824-26.0096 19.456-32.3584v-1.6384c0-20.2752 16.384-36.6592 36.6592-36.6592s36.6592 16.384 36.6592 36.6592v1.6384c11.6736 6.3488 19.456 18.6368 19.456 32.3584 0.2048 20.2752-16.384 36.6592-36.6592 36.6592z m-19.2512-28.8768c2.8672 0 5.5296 1.2288 7.5776 3.2768 3.072 3.2768 7.3728 5.12 11.8784 5.12 9.0112 0 16.1792-7.3728 16.1792-16.1792 0-7.5776-5.3248-14.1312-12.6976-15.7696-2.8672-0.6144-5.3248-2.4576-6.7584-4.9152-1.4336-2.4576-1.8432-5.5296-0.8192-8.192 0.6144-1.6384 0.8192-3.2768 0.8192-4.9152 0-9.0112-7.168-16.1792-16.1792-16.1792s-16.1792 7.3728-16.1792 16.1792c0 1.6384 0.2048 3.2768 0.8192 4.9152 0.8192 2.6624 0.6144 5.7344-0.8192 8.192-1.4336 2.4576-3.8912 4.3008-6.7584 4.9152-7.3728 1.6384-12.6976 8.192-12.6976 15.7696 0 9.0112 7.168 16.1792 16.1792 16.1792 4.5056 0 8.8064-1.8432 11.8784-5.12 2.048-2.2528 4.7104-3.2768 7.5776-3.2768z" fill="#231F20" p-id="2420"></path><path d="M866.0992 646.5536c-5.7344 0-10.24-4.5056-10.24-10.24V559.104c0-5.7344 4.5056-10.24 10.24-10.24s10.24 4.5056 10.24 10.24v77.2096c0 5.5296-4.7104 10.24-10.24 10.24z" fill="#231F20" p-id="2421"></path><path d="M982.8352 515.2768c0.8192-2.6624 1.2288-5.3248 1.2288-8.192 0-14.5408-11.8784-26.4192-26.4192-26.4192s-26.4192 11.8784-26.4192 26.4192c0 2.8672 0.4096 5.5296 1.2288 8.192-11.8784 2.6624-20.6848 13.1072-20.6848 25.8048 0 14.5408 11.8784 26.4192 26.4192 26.4192 7.5776 0 14.5408-3.2768 19.456-8.3968 4.9152 5.12 11.6736 8.3968 19.456 8.3968 14.5408 0 26.4192-11.8784 26.4192-26.4192 0-12.6976-8.8064-23.1424-20.6848-25.8048z" fill="#08B26C" p-id="2422"></path><path d="M977.1008 577.7408c-6.9632 0-13.7216-2.048-19.456-5.5296-5.7344 3.6864-12.4928 5.5296-19.456 5.5296-20.2752 0-36.6592-16.384-36.6592-36.6592 0-13.7216 7.7824-26.0096 19.456-32.3584v-1.6384c0-20.2752 16.384-36.6592 36.6592-36.6592s36.6592 16.384 36.6592 36.6592v1.6384c11.6736 6.3488 19.456 18.6368 19.456 32.3584 0 20.2752-16.384 36.6592-36.6592 36.6592z m-19.456-28.8768c2.8672 0 5.5296 1.2288 7.5776 3.2768 3.072 3.2768 7.3728 5.12 11.8784 5.12 9.0112 0 16.1792-7.3728 16.1792-16.1792 0-7.5776-5.3248-14.1312-12.6976-15.7696-2.8672-0.6144-5.3248-2.4576-6.7584-4.9152-1.4336-2.4576-1.8432-5.5296-0.8192-8.192 0.6144-1.6384 0.8192-3.2768 0.8192-4.9152 0-9.0112-7.168-16.1792-16.1792-16.1792s-16.1792 7.3728-16.1792 16.1792c0 1.6384 0.2048 3.2768 0.8192 4.9152 0.8192 2.6624 0.6144 5.7344-0.8192 8.192-1.4336 2.4576-3.8912 4.3008-6.7584 4.9152-7.3728 1.6384-12.6976 8.192-12.6976 15.7696 0 9.0112 7.168 16.1792 16.1792 16.1792 4.5056 0 8.8064-1.8432 11.8784-5.12 2.048-2.2528 4.7104-3.2768 7.5776-3.2768z" fill="#231F20" p-id="2423"></path><path d="M957.6448 646.5536c-5.7344 0-10.24-4.5056-10.24-10.24V559.104c0-5.7344 4.5056-10.24 10.24-10.24s10.24 4.5056 10.24 10.24v77.2096c0 5.5296-4.5056 10.24-10.24 10.24z" fill="#231F20" p-id="2424"></path><path d="M91.5456 515.2768c0.8192-2.6624 1.2288-5.3248 1.2288-8.192 0-14.5408-11.8784-26.4192-26.4192-26.4192-14.5408 0-26.4192 11.8784-26.4192 26.4192 0 2.8672 0.4096 5.5296 1.2288 8.192-11.8784 2.6624-20.6848 13.1072-20.6848 25.8048 0 14.5408 11.8784 26.4192 26.4192 26.4192 7.5776 0 14.5408-3.2768 19.456-8.3968 4.9152 5.12 11.6736 8.3968 19.456 8.3968 14.5408 0 26.4192-11.8784 26.4192-26.4192-0.2048-12.6976-9.0112-23.1424-20.6848-25.8048z" fill="#08B26C" p-id="2425"></path><path d="M85.6064 577.7408c-6.9632 0-13.5168-2.048-19.456-5.5296-5.7344 3.6864-12.4928 5.5296-19.456 5.5296-20.2752 0-36.6592-16.384-36.6592-36.6592 0-13.7216 7.7824-26.0096 19.456-32.3584v-1.6384c0-20.2752 16.384-36.6592 36.6592-36.6592s36.6592 16.384 36.6592 36.6592v1.6384c11.6736 6.3488 19.456 18.6368 19.456 32.3584 0 20.2752-16.384 36.6592-36.6592 36.6592zM66.3552 548.864c2.8672 0 5.5296 1.2288 7.5776 3.2768 3.072 3.2768 7.3728 5.12 11.8784 5.12 9.0112 0 16.1792-7.3728 16.1792-16.1792 0-7.5776-5.3248-14.1312-12.6976-15.7696-2.8672-0.6144-5.3248-2.4576-6.7584-4.9152-1.4336-2.4576-1.8432-5.5296-0.8192-8.192 0.6144-1.6384 0.8192-3.2768 0.8192-4.9152 0-9.0112-7.168-16.1792-16.1792-16.1792s-16.1792 7.3728-16.1792 16.1792c0 1.6384 0.2048 3.2768 0.8192 4.9152 0.8192 2.6624 0.6144 5.7344-0.8192 8.192-1.4336 2.4576-3.8912 4.3008-6.7584 4.9152-7.3728 1.6384-12.6976 8.192-12.6976 15.7696 0 9.0112 7.168 16.1792 16.1792 16.1792 4.5056 0 8.8064-1.8432 11.8784-5.12 1.8432-2.2528 4.7104-3.2768 7.5776-3.2768z" fill="#231F20" p-id="2426"></path><path d="M66.3552 646.5536c-5.7344 0-10.24-4.5056-10.24-10.24V559.104c0-5.7344 4.5056-10.24 10.24-10.24s10.24 4.5056 10.24 10.24v77.2096c0 5.5296-4.7104 10.24-10.24 10.24z" fill="#231F20" p-id="2427"></path><path d="M183.0912 515.2768c0.8192-2.6624 1.2288-5.3248 1.2288-8.192 0-14.5408-11.8784-26.4192-26.4192-26.4192-14.5408 0-26.4192 11.8784-26.4192 26.4192 0 2.8672 0.4096 5.5296 1.2288 8.192-11.8784 2.6624-20.6848 13.1072-20.6848 25.8048 0 14.5408 11.8784 26.4192 26.4192 26.4192 7.5776 0 14.5408-3.2768 19.456-8.3968 4.9152 5.12 11.6736 8.3968 19.456 8.3968 14.5408 0 26.4192-11.8784 26.4192-26.4192 0-12.6976-8.8064-23.1424-20.6848-25.8048z" fill="#08B26C" p-id="2428"></path><path d="M177.3568 577.7408c-6.9632 0-13.7216-2.048-19.456-5.5296-5.7344 3.6864-12.4928 5.5296-19.456 5.5296-20.2752 0-36.6592-16.384-36.6592-36.6592 0-13.7216 7.7824-26.0096 19.456-32.3584v-1.6384c0-20.2752 16.384-36.6592 36.6592-36.6592s36.6592 16.384 36.6592 36.6592v1.6384c11.6736 6.3488 19.456 18.6368 19.456 32.3584 0 20.2752-16.384 36.6592-36.6592 36.6592zM157.9008 548.864c2.8672 0 5.5296 1.2288 7.5776 3.2768 3.072 3.2768 7.3728 5.12 11.8784 5.12 9.0112 0 16.1792-7.3728 16.1792-16.1792 0-7.5776-5.3248-14.1312-12.6976-15.7696-2.8672-0.6144-5.3248-2.4576-6.7584-4.9152-1.4336-2.4576-1.8432-5.5296-0.8192-8.192 0.6144-1.6384 0.8192-3.2768 0.8192-4.9152 0-9.0112-7.168-16.1792-16.1792-16.1792s-16.1792 7.3728-16.1792 16.1792c0 1.6384 0.2048 3.2768 0.8192 4.9152 0.8192 2.6624 0.6144 5.7344-0.8192 8.192-1.4336 2.4576-3.8912 4.3008-6.7584 4.9152-7.3728 1.6384-12.6976 8.192-12.6976 15.7696 0 9.0112 7.168 16.1792 16.1792 16.1792 4.5056 0 8.8064-1.8432 11.8784-5.12 2.048-2.2528 4.7104-3.2768 7.5776-3.2768z" fill="#231F20" p-id="2429"></path><path d="M157.9008 646.5536c-5.7344 0-10.24-4.5056-10.24-10.24V559.104c0-5.7344 4.5056-10.24 10.24-10.24s10.24 4.5056 10.24 10.24v77.2096c0 5.5296-4.5056 10.24-10.24 10.24z" fill="#231F20" p-id="2430"></path><path d="M36.2496 691.6096H10.24c-5.7344 0-10.24-4.5056-10.24-10.24s4.5056-10.24 10.24-10.24h26.0096c5.7344 0 10.24 4.5056 10.24 10.24s-4.7104 10.24-10.24 10.24zM937.3696 691.6096h-155.648c-5.7344 0-10.24-4.5056-10.24-10.24s4.5056-10.24 10.24-10.24h155.648c5.7344 0 10.24 4.5056 10.24 10.24s-4.7104 10.24-10.24 10.24z" fill="#35EF9F" p-id="2431"></path><path d="M643.2768 318.0544v106.7008c0 9.216 7.3728 16.5888 16.5888 16.5888h57.344c9.216 0 16.5888-7.3728 16.5888-16.5888v-106.7008c0-9.216-7.3728-16.5888-16.5888-16.5888h-57.344c-9.216 0.2048-16.5888 7.5776-16.5888 16.5888z" fill="#F9B630" p-id="2432"></path><path d="M717.0048 451.584h-57.344c-14.7456 0-26.8288-12.0832-26.8288-26.8288v-106.7008c0-14.7456 12.0832-26.8288 26.8288-26.8288h57.344c14.7456 0 26.8288 12.0832 26.8288 26.8288v106.7008c0 14.9504-12.0832 26.8288-26.8288 26.8288z m-57.344-139.6736c-3.4816 0-6.3488 2.8672-6.3488 6.3488v106.7008c0 3.4816 2.8672 6.3488 6.3488 6.3488h57.344c3.4816 0 6.3488-2.8672 6.3488-6.3488v-106.7008c0-3.4816-2.8672-6.3488-6.3488-6.3488h-57.344z" fill="#231F20" p-id="2433"></path><path d="M290.4064 501.5552h443.1872V856.064H290.4064z" fill="#C9C9C9" p-id="2434"></path><path d="M340.992 866.304c-5.7344 0-10.24-4.5056-10.24-10.24V540.672c0-5.7344 4.5056-10.24 10.24-10.24s10.24 4.5056 10.24 10.24v315.392c0 5.7344-4.5056 10.24-10.24 10.24z" fill="#F9F9F9" p-id="2435"></path><path d="M733.5936 866.304H290.4064c-5.7344 0-10.24-4.5056-10.24-10.24V501.5552c0-5.7344 4.5056-10.24 10.24-10.24h443.1872c5.7344 0 10.24 4.5056 10.24 10.24V856.064c0 5.7344-4.5056 10.24-10.24 10.24z m-432.9472-20.48h422.7072V511.7952H300.6464V845.824z" fill="#231F20" p-id="2436"></path><path d="M569.5488 856.064H454.656v-94.6176c0-21.7088 17.6128-39.5264 39.5264-39.5264h36.0448c21.7088 0 39.5264 17.6128 39.5264 39.5264V856.064z" fill="#7A7979" p-id="2437"></path><path d="M569.5488 866.304H454.656c-5.7344 0-10.24-4.5056-10.24-10.24v-94.6176c0-27.4432 22.3232-49.7664 49.7664-49.7664h36.0448c27.4432 0 49.7664 22.3232 49.7664 49.7664V856.064c-0.2048 5.7344-4.9152 10.24-10.4448 10.24z m-104.8576-20.48H559.104v-84.3776c0-16.1792-13.1072-29.2864-29.2864-29.2864h-36.0448c-16.1792 0-29.2864 13.1072-29.2864 29.2864V845.824z" fill="#231F20" p-id="2438"></path><path d="M786.8416 473.088c12.0832 9.216 5.5296 28.4672-9.6256 28.4672h-530.432c-15.1552 0-21.7088-19.2512-9.6256-28.4672l236.7488-181.0432c22.528-17.2032 53.8624-17.2032 76.3904 0L786.8416 473.088z" fill="#F9B630" p-id="2439"></path><path d="M777.216 511.7952h-530.432c-11.4688 0-21.0944-6.9632-24.7808-17.8176-3.6864-10.8544-0.2048-22.1184 8.8064-29.0816l236.7488-181.0432c26.2144-20.0704 62.6688-20.0704 88.8832 0L793.1904 464.896c9.0112 6.9632 12.4928 18.432 8.8064 29.0816-3.6864 10.8544-13.312 17.8176-24.7808 17.8176zM512 289.3824c-11.264 0-22.528 3.6864-31.9488 10.8544L243.3024 481.28c-2.8672 2.2528-2.2528 5.12-1.8432 6.3488s1.6384 3.8912 5.3248 3.8912h530.432c3.6864 0 4.9152-2.6624 5.3248-3.8912s1.024-4.096-1.8432-6.3488l-236.7488-181.0432c-9.4208-7.3728-20.6848-10.8544-31.9488-10.8544z" fill="#231F20" p-id="2440"></path><path d="M489.472 341.8112c-3.072 0-6.144-1.4336-8.192-4.096-3.4816-4.5056-2.6624-10.8544 1.8432-14.336l9.4208-7.168c4.5056-3.4816 10.8544-2.6624 14.336 1.8432s2.6624 10.8544-1.8432 14.336l-9.4208 7.168c-1.8432 1.6384-4.096 2.2528-6.144 2.2528zM320.9216 470.8352c-3.072 0-6.144-1.4336-8.192-4.096-3.4816-4.5056-2.6624-10.8544 1.8432-14.336l134.144-102.6048c4.5056-3.4816 10.8544-2.6624 14.336 1.8432 3.4816 4.5056 2.6624 10.8544-1.8432 14.336l-134.144 102.6048c-1.8432 1.4336-4.096 2.2528-6.144 2.2528z" fill="#FFEDCC" p-id="2441"></path><path d="M391.5776 584.4992h-40.5504c-5.5296 0-10.0352 4.5056-10.0352 10.0352v40.5504c0 5.5296 4.5056 10.0352 10.0352 10.0352h40.5504c5.5296 0 10.0352-4.5056 10.0352-10.0352v-40.5504c0.2048-5.5296-4.3008-10.0352-10.0352-10.0352z" fill="#71CCFF" p-id="2442"></path><path d="M391.5776 655.36h-40.5504c-11.264 0-20.2752-9.216-20.2752-20.2752v-40.5504c0-11.264 9.216-20.2752 20.2752-20.2752h40.5504c11.264 0 20.2752 9.216 20.2752 20.2752v40.5504c0.2048 11.0592-9.0112 20.2752-20.2752 20.2752z m-40.3456-60.6208l0.2048 40.3456 40.3456-0.2048-0.2048-40.1408h-40.3456z m40.3456 0z" fill="#231F20" p-id="2443"></path><path d="M452.4032 584.4992h-40.5504c-5.5296 0-10.0352 4.5056-10.0352 10.0352v40.5504c0 5.5296 4.5056 10.0352 10.0352 10.0352h40.5504c5.5296 0 10.0352-4.5056 10.0352-10.0352v-40.5504c0-5.5296-4.5056-10.0352-10.0352-10.0352z" fill="#71CCFF" p-id="2444"></path><path d="M452.4032 655.36h-40.5504c-11.264 0-20.2752-9.216-20.2752-20.2752v-40.5504c0-11.264 9.216-20.2752 20.2752-20.2752h40.5504c11.264 0 20.2752 9.216 20.2752 20.2752v40.5504c0 11.0592-9.0112 20.2752-20.2752 20.2752z m-40.5504-60.6208l0.2048 40.3456 40.3456-0.2048-0.2048-40.1408h-40.3456z m40.5504 0z" fill="#231F20" p-id="2445"></path><path d="M612.1472 584.4992h-40.5504c-5.5296 0-10.0352 4.5056-10.0352 10.0352v40.5504c0 5.5296 4.5056 10.0352 10.0352 10.0352h40.5504c5.5296 0 10.0352-4.5056 10.0352-10.0352v-40.5504c0-5.5296-4.5056-10.0352-10.0352-10.0352z" fill="#71CCFF" p-id="2446"></path><path d="M612.1472 655.36h-40.5504c-11.264 0-20.2752-9.216-20.2752-20.2752v-40.5504c0-11.264 9.216-20.2752 20.2752-20.2752h40.5504c11.264 0 20.2752 9.216 20.2752 20.2752v40.5504c0 11.0592-9.0112 20.2752-20.2752 20.2752z m-40.5504-60.6208l0.2048 40.3456 40.3456-0.2048-0.2048-40.1408h-40.3456z m40.5504 0z" fill="#231F20" p-id="2447"></path><path d="M672.768 584.4992h-40.5504c-5.5296 0-10.0352 4.5056-10.0352 10.0352v40.5504c0 5.5296 4.5056 10.0352 10.0352 10.0352h40.5504c5.5296 0 10.0352-4.5056 10.0352-10.0352v-40.5504c0.2048-5.5296-4.3008-10.0352-10.0352-10.0352z" fill="#71CCFF" p-id="2448"></path><path d="M672.768 655.36h-40.5504c-11.264 0-20.2752-9.216-20.2752-20.2752v-40.5504c0-11.264 9.216-20.2752 20.2752-20.2752h40.5504c11.264 0 20.2752 9.216 20.2752 20.2752v40.5504c0.2048 11.0592-9.0112 20.2752-20.2752 20.2752z m-40.3456-60.6208l0.2048 40.3456 40.3456-0.2048-0.2048-40.1408h-40.3456z m40.3456 0zM290.4064 866.304H182.272c-5.7344 0-10.24-4.5056-10.24-10.24s4.5056-10.24 10.24-10.24h108.1344c5.7344 0 10.24 4.5056 10.24 10.24s-4.5056 10.24-10.24 10.24zM137.216 866.304h-14.336c-5.7344 0-10.24-4.5056-10.24-10.24s4.5056-10.24 10.24-10.24h14.336c5.7344 0 10.24 4.5056 10.24 10.24s-4.5056 10.24-10.24 10.24zM841.728 866.304h-108.1344c-5.7344 0-10.24-4.5056-10.24-10.24s4.5056-10.24 10.24-10.24H841.728c5.7344 0 10.24 4.5056 10.24 10.24s-4.5056 10.24-10.24 10.24zM901.12 866.304h-14.336c-5.7344 0-10.24-4.5056-10.24-10.24s4.5056-10.24 10.24-10.24h14.336c5.7344 0 10.24 4.5056 10.24 10.24s-4.5056 10.24-10.24 10.24z" fill="#231F20" p-id="2449"></path></svg>