<?xml version="1.0" standalone="no"?><!DOCTYPE svg PUBLIC "-//W3C//DTD SVG 1.1//EN" "http://www.w3.org/Graphics/SVG/1.1/DTD/svg11.dtd"><svg t="1781065895948" class="icon" viewBox="0 0 1024 1024" version="1.1" xmlns="http://www.w3.org/2000/svg" p-id="2415" xmlns:xlink="http://www.w3.org/1999/xlink" width="200" height="200"><path d="M360.016 172.016h-64a8 8 0 0 1 0-16h64a8 8 0 0 1 0 16z" fill="#263238" p-id="2416"></path><path d="M328.016 204.016a8 8 0 0 1-8-8v-64a8 8 0 0 1 16 0v64a8 8 0 0 1-8 8zM232.016 244.016h-64a8 8 0 0 1 0-16h64a8 8 0 0 1 0 16z" fill="#263238" p-id="2417"></path><path d="M200.016 276.016a8 8 0 0 1-8-8v-64a8 8 0 0 1 16 0v64a8 8 0 0 1-8 8zM220.016 900.016h-32a8 8 0 0 1 0-16h32a8 8 0 0 1 0 16zM412.736 900.016H252.016a8 8 0 0 1 0-16h160.72a151.568 151.568 0 0 0 103.968-41.12l81.84-76.72a8 8 0 1 1 10.944 11.68l-81.84 76.72a167.52 167.52 0 0 1-114.912 45.44z" fill="#263238" p-id="2418"></path><path d="M864.016 172.016l-704 312 216 64 64 232 163.888-164.752 212.112 60.752z" fill="#40C4FF" p-id="2419"></path><path d="M440 788.016a8 8 0 0 1-7.712-5.888l-62.816-227.712L157.728 491.68a8.016 8.016 0 0 1-0.976-14.976l704-312a7.968 7.968 0 0 1 11.2 8.08l-48 504a8 8 0 0 1-10.16 6.912L606.24 624.256 445.68 785.664a8.032 8.032 0 0 1-5.68 2.352zM183.12 482.512l195.152 57.824c2.656 0.784 4.704 2.88 5.44 5.552l60.336 218.72 154.176-154.992a7.856 7.856 0 0 1 7.872-2.048l202.848 58.096 45.792-480.8-671.616 297.648z" fill="#263238" p-id="2420"></path><path d="M603.904 623.264a8.24 8.24 0 0 1-2.464-0.384l-83.888-27.248a7.984 7.984 0 0 1-3.696-12.704l298.544-361.024-431.504 332.448a8.016 8.016 0 0 1-9.76-12.688l488-376a8 8 0 1 1 11.056 11.44L533.664 584.048l72.688 23.616a7.984 7.984 0 0 1-2.448 15.6z" fill="#263238" p-id="2421"></path><path d="M440 788.016a8 8 0 0 1-7.376-11.072l80-192a8 8 0 0 1 14.768 6.144l-80 192a7.984 7.984 0 0 1-7.392 4.928z" fill="#263238" p-id="2422"></path></svg>