<?xml version="1.0" standalone="no"?><!DOCTYPE svg PUBLIC "-//W3C//DTD SVG 1.1//EN" "http://www.w3.org/Graphics/SVG/1.1/DTD/svg11.dtd"><svg t="1781091374005" class="icon" viewBox="0 0 1024 1024" version="1.1" xmlns="http://www.w3.org/2000/svg" p-id="2578" xmlns:xlink="http://www.w3.org/1999/xlink" width="200" height="200"><path d="M333.261889 773.446809c46.11486 0 83.630298-37.517617 83.630298-83.632477 0-18.140051-5.708255-35.39554-16.508187-49.897123l-67.122111-89.826588-67.137361 89.848375c-10.784681 14.479796-16.492936 31.733106-16.492937 49.877515 0 46.112681 37.515438 83.630298 83.630298 83.630298z" fill="#FFFFFF" p-id="2579"></path><path d="M595.776272 876.93617c0-9.026451 7.313974-16.340426 16.340426-16.340425h275.774093V451.980528H612.116698a16.340426 16.340426 0 0 1-16.340426-16.336068h-32.680851v441.300425s32.680851 0 32.680851-0.008715z" fill="#98D9D5" p-id="2580"></path><path d="M136.109209 860.595745h394.305361V451.980528H136.109209V860.595745z m184.06291-347.586996a16.340426 16.340426 0 0 1 26.179541 0l80.227131 107.367489c15.048443 20.205481 22.994247 44.210655 22.994247 69.438094 0 64.135081-52.178247 116.313328-116.311149 116.313328s-116.311149-52.178247-116.311149-116.313328c0-25.227438 7.945804-49.232613 22.978996-69.416306l80.242383-107.389277z" fill="#C1E8E6" p-id="2581"></path><path d="M887.890791 893.276596H612.116698a16.340426 16.340426 0 0 1-16.340426-16.331711h-32.680851V991.319149h324.79537v-98.042553zM595.776272 435.640102c0-9.026451 7.313974-16.340426 16.340426-16.340425h275.774093v-98.042554H563.095421v114.387337s32.680851 0 32.680851-0.004358zM582.965379 288.576272h285.055455L725.493106 127.047898z" fill="#FFCC75" p-id="2582"></path><path d="M363.868596 86.011643a16.340426 16.340426 0 0 1 16.340425 16.333889h32.680851a16.340426 16.340426 0 0 1 16.340426-16.333889h279.922383V32.680851H314.847319v53.330792h49.021277z" fill="#F2EBD9" p-id="2583"></path><path d="M380.209021 102.352068a16.340426 16.340426 0 0 1-16.340425 16.340426h-57.988902l-149.900528 169.885957h383.40303l149.900527-169.885957H429.230298a16.340426 16.340426 0 0 1-16.340426-16.340426c0-0.006536-32.680851-0.006536-32.680851 0z" fill="#FFFFFF" p-id="2584"></path><path d="M136.109209 893.276596h394.305361v98.042553H136.109209zM136.109209 321.257123h394.305361v98.042554H136.109209z" fill="#F2EBD9" p-id="2585"></path><path d="M920.493209 303.345838c-0.021787-0.224409-0.061004-0.442281-0.091507-0.66451-0.039217-0.285413-0.076255-0.573004-0.130723-0.858417-0.050111-0.267983-0.117651-0.52943-0.183013-0.790877-0.056647-0.230945-0.111115-0.461889-0.176477-0.688477a24.214332 24.214332 0 0 0-0.49457-1.442314 15.732562 15.732562 0 0 0-0.63183-1.396562 15.451506 15.451506 0 0 0-0.76691-1.342094 14.577838 14.577838 0 0 0-0.893277-1.265838 15.054979 15.054979 0 0 0-0.466247-0.57954c-0.058826-0.069719-0.111115-0.143796-0.16994-0.211337L741.833532 96.173209V16.340426c0-9.026451-7.313974-16.340426-16.340426-16.340426H298.506894a16.340426 16.340426 0 0 0-16.340426 16.340426v79.832783L107.515643 294.105872c-0.058826 0.065362-0.108936 0.13726-0.165583 0.2048-0.167762 0.193906-0.32463 0.396528-0.481498 0.599149a16.216238 16.216238 0 0 0-0.891098 1.265839 14.983081 14.983081 0 0 0-0.764732 1.339914 16.394894 16.394894 0 0 0-0.85406 2.004426 15.227098 15.227098 0 0 0-0.270161 0.825736c-0.065362 0.224409-0.11983 0.450996-0.174298 0.679762-0.065362 0.265804-0.132902 0.52943-0.183013 0.799591-0.054468 0.281055-0.091506 0.566468-0.130723 0.851881-0.030502 0.224409-0.069719 0.44446-0.091507 0.671047a16.333889 16.333889 0 0 0-0.078434 1.568681V1007.659574a16.340426 16.340426 0 0 0 16.340426 16.340426H904.235574c9.026451 0 16.340426-7.313974 16.340426-16.340426V304.916698a17.926536 17.926536 0 0 0-0.082791-1.57086z m-390.078639 17.911285v98.042554H136.109209v-98.042554h394.305361z m0 539.338622H136.109209V451.980528h394.305361V860.595745z m52.550809-572.019473l142.527727-161.528374 142.527728 161.528374H582.965379zM709.152681 32.680851v53.330792H429.230298a16.340426 16.340426 0 0 0 0 32.680851h260.052425l-149.900527 169.885957H155.979166l149.900528-169.885957h57.988902a16.340426 16.340426 0 0 0 0-32.680851h-49.021277V32.680851h394.305362zM136.109209 893.276596h394.305361v98.042553H136.109209v-98.042553z m426.986212-572.019473h324.79537v98.042554H612.116698a16.338247 16.338247 0 0 0-16.340426 16.340425 16.340426 16.340426 0 0 0 16.340426 16.340426h275.774093V860.595745H612.116698a16.340426 16.340426 0 0 0 0 32.680851h275.774093v98.042553H563.095421V321.257123z" fill="#082947" p-id="2586"></path><path d="M333.261889 806.12766c64.135081 0 116.311149-52.178247 116.311149-116.313328 0-25.227438-7.945804-49.232613-22.994247-69.438094l-80.227131-107.367489a16.340426 16.340426 0 0 0-26.179541 0l-80.242383 107.389277c-15.033191 20.185872-22.978996 44.188868-22.978996 69.416306 0 64.135081 52.176068 116.313328 116.311149 116.313328z m0-256.039217l67.122111 89.826587c10.799932 14.501583 16.508187 31.757072 16.508187 49.897123 0 46.11486-37.517617 83.632477-83.630298 83.632477s-83.630298-37.517617-83.630298-83.632477c0-18.14223 5.708255-35.39554 16.492937-49.877515l67.137361-89.846195z" fill="#082947" p-id="2587"></path></svg>