<?xml version="1.0" standalone="no"?><!DOCTYPE svg PUBLIC "-//W3C//DTD SVG 1.1//EN" "http://www.w3.org/Graphics/SVG/1.1/DTD/svg11.dtd"><svg t="1781091569905" class="icon" viewBox="0 0 1024 1024" version="1.1" xmlns="http://www.w3.org/2000/svg" p-id="3378" xmlns:xlink="http://www.w3.org/1999/xlink" width="200" height="200"><path d="M508 138c-199.37 0-361 161.63-361 361s161.63 361 361 361 361-161.63 361-361-161.63-361-361-361z m5.85 473.18c-61.66 0-111.65-49.99-111.65-111.65s49.99-111.65 111.65-111.65S625.5 437.87 625.5 499.53s-49.99 111.65-111.65 111.65z" fill="#EFB6D2" p-id="3379"></path><path d="M740.31 307.88l-26.68 51.63c-4.89 9.47-18.44 9.47-23.33 0l-26.68-51.63a13.162 13.162 0 0 1 0-12.06l26.68-51.63c4.89-9.47 18.44-9.47 23.33 0l26.68 51.63c1.95 3.78 1.95 8.28 0 12.06z" fill="#FFFFFF" p-id="3380"></path><path d="M695.93 340.2l-51.63-26.68c-9.47-4.89-9.47-18.44 0-23.33l51.63-26.68c3.78-1.95 8.28-1.95 12.06 0l51.63 26.68c9.47 4.89 9.47 18.44 0 23.33l-51.63 26.68a13.162 13.162 0 0 1-12.06 0z" fill="#FFFFFF" p-id="3381"></path><path d="M304.01 647.54l-21.64 41.88c-3.97 7.68-14.96 7.68-18.93 0l-21.64-41.88a10.622 10.622 0 0 1 0-9.78l21.64-41.88c3.97-7.68 14.96-7.68 18.93 0l21.64 41.88c1.59 3.07 1.59 6.71 0 9.78z" fill="#ED6BB0" p-id="3382"></path><path d="M268.01 673.76l-41.88-21.64c-7.68-3.97-7.68-14.96 0-18.93l41.88-21.64c3.07-1.59 6.71-1.59 9.78 0l41.88 21.64c7.68 3.97 7.68 14.96 0 18.93l-41.88 21.64a10.622 10.622 0 0 1-9.78 0z" fill="#ED6BB0" p-id="3383"></path><path d="M804.14 727.85c0-33.35-20.84-66.7-62.52-66.7-37.52 0-54.19 33.35-54.19 33.35s-16.68-33.35-54.19-33.35c-41.68 0-62.53 33.35-62.53 66.7 0 50.01 46.16 90.84 93.26 119.86a44.692 44.692 0 0 0 46.92 0c47.1-29.02 93.25-69.85 93.25-119.85z" fill="#ED6BB0" p-id="3384"></path><path d="M650.079219 366.344423m6.911515 16.620197l16.437886 39.52837q6.911515 16.620197-9.708683 23.531712l0 0q-16.620197 6.911515-23.531712-9.708683l-16.437886-39.528369q-6.911515-16.620197 9.708683-23.531713l0 0q16.620197-6.911515 23.531712 9.708683Z" fill="#FFFFFF" p-id="3385"></path><path d="M307.065055 423.353653m6.911515 16.620198l16.437885 39.52837q6.911515 16.620197-9.708682 23.531712l0 0q-16.620197 6.911515-23.531713-9.708683l-16.437885-39.52837q-6.911515-16.620197 9.708682-23.531712l0 0q16.620197-6.911515 23.531713 9.708683Z" fill="#FFFFFF" p-id="3386"></path><path d="M641.654156 600.401313m12.727922-12.727922l36.416-36.415999q12.727922-12.727922 25.455844 0l0 0q12.727922 12.727922 0 25.455844l-36.416 36.415999q-12.727922 12.727922-25.455844 0l0 0q-12.727922-12.727922 0-25.455844Z" fill="#ED6BB0" p-id="3387"></path><path d="M370.111358 400.866952m6.324327-16.852386l18.094601-48.216547q6.324327-16.852385 23.176712-10.528058l0 0q16.852385 6.324327 10.528059 23.176712l-18.094602 48.216547q-6.324327 16.852385-23.176712 10.528058l0 0q-16.852385-6.324327-10.528058-23.176712Z" fill="#ED6BB0" p-id="3388"></path></svg>