<?xml version="1.0" standalone="no"?><!DOCTYPE svg PUBLIC "-//W3C//DTD SVG 1.1//EN" "http://www.w3.org/Graphics/SVG/1.1/DTD/svg11.dtd"><svg t="1781065843697" class="icon" viewBox="0 0 1024 1024" version="1.1" xmlns="http://www.w3.org/2000/svg" p-id="3274" xmlns:xlink="http://www.w3.org/1999/xlink" width="200" height="200"><path d="M899.680984 981.017443L819.585673 813.629063c-7.15176-14.943498-25.057159-21.259286-40.008657-14.113526-14.945498 7.15176-21.263286 25.065158-14.111526 40.010657l25.509144 53.31021H233.025366l25.509144-53.31021c7.15176-14.945498 0.833972-32.858897-14.111526-40.010657-14.945498-7.14576-32.856897-0.829972-40.008657 14.113526l-80.095311 167.38838c-7.15176 14.945498-0.833972 32.858897 14.111526 40.010657a29.894996 29.894996 0 0 0 12.927566 2.945901c11.189624 0 21.929264-6.291789 27.083091-17.057427l25.877131-54.080185h615.36534l25.877131 54.080185c5.151827 10.767638 15.891466 17.057427 27.083091 17.057427 4.339854 0 8.749706-0.947968 12.927566-2.945901 14.943498-7.15176 21.261286-25.065158 14.109526-40.010657z" fill="#766D6D" p-id="3275"></path><path d="M899.680984 981.017443L819.585673 813.629063c-7.15176-14.943498-25.057159-21.259286-40.008657-14.113526-14.945498 7.15176-21.263286 25.065158-14.111526 40.010657l25.509144 53.31021H512v59.997985h307.68367l25.877131 54.080185c5.151827 10.767638 15.891466 17.057427 27.083091 17.057427 4.339854 0 8.749706-0.947968 12.927566-2.945901 14.943498-7.14976 21.261286-25.063159 14.109526-40.008657z" fill="#483F3F" p-id="3276"></path><path d="M946.841401 618.651609L895.63512 119.532367A132.765543 132.765543 0 0 0 763.213566 0.00038H260.786434a132.765543 132.765543 0 0 0-132.421554 119.531987L77.158599 618.651609c-5.783806 56.378107 12.677574 112.840211 50.6523 154.908799s92.256903 66.197777 148.929 66.197778h470.520202c56.672097 0 110.954275-24.12719 148.929-66.197778s56.436105-98.530692 50.6523-154.908799z" fill="#EEE1DD" p-id="3277"></path><path d="M946.841401 618.651609L895.63512 119.532367A132.765543 132.765543 0 0 0 763.213566 0.00038H512v839.757806h235.260101c56.672097 0 110.954275-24.12719 148.929-66.197778s56.436105-98.530692 50.6523-154.908799z" fill="#DED1CD" p-id="3278"></path><path d="M934.707808 500.38358H89.292192l-12.133593 118.268029c-5.783806 56.378107 12.677574 112.840211 50.6523 154.908799s92.256903 66.197777 148.929 66.197778h470.520202c56.672097 0 110.954275-24.12719 148.929-66.197778s56.436105-98.530692 50.6523-154.908799z" fill="#FF2C49" p-id="3279"></path><path d="M946.841401 618.651609l-12.133593-118.268029H512v339.374606h235.260101c56.672097 0 110.954275-24.12719 148.929-66.197778s56.436105-98.530692 50.6523-154.908799z" fill="#BF0032" p-id="3280"></path><path d="M812.485911 356.850399L786.846772 106.93479C785.278825 91.631304 772.387258 79.997694 757.005774 79.997694H266.996226c-15.381484 0-28.273051 11.633609-29.842998 26.937096l-25.639139 249.915609a29.998993 29.998993 0 0 0 29.842998 33.06089h541.287826a29.992993 29.992993 0 0 0 29.840998-33.06089z" fill="#A3D8F5" p-id="3281"></path><path d="M812.485911 356.850399L786.846772 106.93479C785.278825 91.631304 772.387258 79.997694 757.005774 79.997694H512v309.913595h270.644913a29.992993 29.992993 0 0 0 29.840998-33.06089z" fill="#29B2EC" p-id="3282"></path><path d="M303.007017 592.030503c-48.440374 0-87.85105 39.408677-87.851051 87.851051s39.410677 87.85105 87.851051 87.85105 87.85105-39.408677 87.85105-87.85105-39.410677-87.85105-87.85105-87.851051z" fill="#FFF48A" p-id="3283"></path><path d="M720.992983 592.030503c-48.440374 0-87.85105 39.408677-87.85105 87.851051s39.410677 87.85105 87.85105 87.85105 87.85105-39.408677 87.851051-87.85105-39.410677-87.85105-87.851051-87.851051z" fill="#FFDB2F" p-id="3284"></path><path d="M812.485911 356.850399L786.846772 106.93479C785.278825 91.631304 772.387258 79.997694 757.005774 79.997694h-152.48888v309.913595h178.128019a29.992993 29.992993 0 0 0 29.840998-33.06089z" fill="#006DFF" p-id="3285"></path><path d="M211.512089 356.850399l25.639139-249.915609C238.721175 91.631304 251.612742 79.997694 266.994226 79.997694h152.48888v309.913595h-178.128019a30.004993 30.004993 0 0 1-29.842998-33.06089z" fill="#00C1F1" p-id="3286"></path></svg>